<?xml version="1.0" encoding="utf-8"?>
<!-- Generator: Adobe Illustrator 19.1.0, SVG Export Plug-In . SVG Version: 6.00 Build 0)  -->
<svg version="1.1" id="search_1_" xmlns="http://www.w3.org/2000/svg" xmlns:xlink="http://www.w3.org/1999/xlink" x="0px" y="0px"
	 viewBox="-152 276.6 289.1 288.3" style="enable-background:new -152 276.6 289.1 288.3;" xml:space="preserve">
<style type="text/css">
	.st0{fill:#FFFFFF;}
</style>
<path class="st0" d="M131.2,535.1l-79.9-79.9c-0.8-0.8-1.6-1.4-2.4-2c13.4-18.4,21.3-41,21.3-65.5c0-61.4-49.7-111.1-111.1-111.1
	S-152,326.3-152,387.7s49.7,111.1,111.1,111.1c24.5,0,47.1-7.9,65.5-21.3c0.6,0.9,1.3,1.7,2,2.4l79.9,79.9c3.4,3.4,7.9,5.1,12.3,5.1
	c4.5,0,8.9-1.7,12.3-5.1C138,553,138,541.9,131.2,535.1z M-40.9,463.8c-42,0-76.1-34.1-76.1-76.1s34.1-76.1,76.1-76.1
	c42,0,76.1,34.1,76.1,76.1S1.1,463.8-40.9,463.8z"/>
</svg>
