<?xml version="1.0" encoding="utf-8"?>
<!-- Generator: Adobe Illustrator 20.0.0, SVG Export Plug-In . SVG Version: 6.00 Build 0)  -->
<svg version="1.1" id="Layer_1" xmlns="http://www.w3.org/2000/svg" xmlns:xlink="http://www.w3.org/1999/xlink" x="0px" y="0px"
	 viewBox="0 0 32 32" style="enable-background:new 0 0 32 32;" xml:space="preserve">
<style type="text/css">
	.st0{fill:#FFFFFF;}
</style>
<path class="st0" d="M22.1,21.9H9.8c-1.1,0-2-0.9-2-2v-7.9c0-1.1,0.9-2,2-2h12.2c1.1,0,2,0.9,2,2v7.8c0.1,0.5-0.1,1-0.5,1.4
	C23.2,21.7,22.7,21.9,22.1,21.9z M9.8,11.6c-0.3,0-0.5,0.3-0.5,0.5v7.9c0,0.2,0.2,0.5,0.5,0.5h12.3c0.1,0,0.2-0.1,0.3-0.2
	c0.1-0.1,0.1-0.2,0.1-0.4l0-7.9c0-0.2-0.2-0.5-0.5-0.5H9.8z"/>
<polygon class="st0" points="16,18.8 10.9,13.7 12,12.6 16,16.7 20,12.6 21.1,13.7 "/>
</svg>
