<svg version="1.1" id="Layer_1" xmlns="http://www.w3.org/2000/svg" xmlns:xlink="http://www.w3.org/1999/xlink" x="0px" y="0px"
	 viewBox="0 0 32 32" style="enable-background:new 0 0 32 32;" xml:space="preserve">
<path d="M4.8,16c-0.1,2.9,2,5.7,4.7,6.6c2.6,0.9,5.8,0.2,7.5-2c1.3-1.6,1.6-3.6,1.4-5.6h-6.7v2.4h4c-0.3,1.2-1.1,2.2-2.3,2.7
	c-2.3,1-5.1-0.3-5.8-2.7c-0.9-2.3,0.5-5,2.9-5.7c1.4-0.5,2.9,0.1,4.1,0.8l1.8-1.8c-1.4-1.2-3.2-1.9-5-1.7C7.8,9.1,4.6,12.4,4.8,16z
	 M22.8,13v2h-2v2h2v2h2v-2h2v-2h-2v-2H22.8z"/>
</svg>
