<svg x="0px" y="0px"
	 viewBox="0 0 32 32" style="enable-background:new 0 0 32 32;" xml:space="preserve">
<path d="M23.3,12.5V13c0,4.7-3.5,10.1-9.9,10.1c-2,0-3.8-0.6-5.3-1.6c0.3,0,0.6,0.1,0.8,0.1c1.6,0,3.1-0.6,4.3-1.5
	c-1.5,0-2.8-1-3.3-2.4c0.2,0,0.4,0.1,0.7,0.1l0.9-0.1c-1.6-0.3-2.8-1.8-2.8-3.5c0.5,0.3,1,0.4,1.6,0.4c-0.9-0.6-1.6-1.7-1.6-2.9
	c0-0.6,0.2-1.3,0.5-1.8c1.7,2.1,4.3,3.6,7.2,3.7c-0.1-0.3-0.1-0.5-0.1-0.8c0-2,1.6-3.5,3.5-3.5c1,0,1.9,0.4,2.5,1.1
	c0.8-0.1,1.5-0.4,2.2-0.8c-0.3,0.8-0.8,1.5-1.5,1.9c0.7-0.1,1.4-0.3,2-0.5C24.6,11.4,24,12,23.3,12.5z"/>
</svg>
