<svg version="1.1" id="Layer_1" xmlns="http://www.w3.org/2000/svg" xmlns:xlink="http://www.w3.org/1999/xlink" x="0px" y="0px"
	 viewBox="0 0 32 32" style="enable-background:new 0 0 32 32;" xml:space="preserve">
<path d="M23.1,8.9C21.2,7,18.7,6,16,6c-5.5,0-10,4.4-10,9.9c0,1.7,0.5,3.5,1.3,5L6,26l5.3-1.4c1.4,0.8,3.1,1.2,4.8,1.2
	c5.5,0,10-4.4,10-9.9C26,13.3,25,10.8,23.1,8.9 M16,24.2c-1.5,0-3-0.4-4.2-1.1l-0.3-0.2l-3.1,0.8l0.8-3L9,20.3
	c-0.8-1.3-1.3-2.8-1.3-4.4c0-4.5,3.7-8.2,8.3-8.2c2.2,0,4.3,0.9,5.9,2.4c1.6,1.6,2.4,3.6,2.4,5.8C24.3,20.5,20.6,24.2,16,24.2
	 M20.6,18c-0.2-0.1-1.5-0.7-1.7-0.8s-0.4-0.1-0.6,0.1c-0.2,0.2-0.6,0.8-0.8,1c-0.1,0.2-0.3,0.2-0.5,0.1c-0.2-0.1-1-0.4-2-1.2
	c-0.7-0.7-1.2-1.5-1.4-1.7c-0.1-0.2,0-0.4,0.1-0.5c0.1-0.1,0.2-0.3,0.4-0.4c0.1-0.1,0.2-0.2,0.2-0.4c0.1-0.2,0-0.3,0-0.4
	c-0.1-0.1-0.6-1.3-0.8-1.8c-0.2-0.5-0.4-0.4-0.6-0.4c-0.1,0-0.3,0-0.5,0c-0.2,0-0.4,0.1-0.7,0.3c-0.2,0.2-0.9,0.8-0.9,2.1
	c0,1.2,0.9,2.4,1,2.6c0.1,0.2,1.8,2.7,4.2,3.7c0.6,0.3,1.1,0.4,1.4,0.5c0.6,0.2,1.1,0.2,1.6,0.1c0.5-0.1,1.5-0.6,1.7-1.2
	s0.2-1.1,0.1-1.2C21,18.2,20.8,18.1,20.6,18"/>
</svg>
