<?xml version="1.0" encoding="utf-8"?>
<!-- Generator: Adobe Illustrator 19.1.0, SVG Export Plug-In . SVG Version: 6.00 Build 0)  -->
<svg version="1.1" id="search_1_" xmlns="http://www.w3.org/2000/svg" xmlns:xlink="http://www.w3.org/1999/xlink" x="0px" y="0px"
	 viewBox="-152 276.6 289.1 288.3" style="enable-background:new -152 276.6 289.1 288.3;" xml:space="preserve">
<style type="text/css">
	.st0{fill:#FFFFFF;}
</style>
<path class="st0" d="M137.1,309h-256.7c-17.9,0-32.4-14.5-32.4-32.4v0h256.7C122.6,276.6,137.1,291.1,137.1,309L137.1,309z"/>
<path class="st0" d="M137.1,436.9h-256.7c-17.9,0-32.4-14.5-32.4-32.4v0h256.7C122.6,404.5,137.1,419,137.1,436.9L137.1,436.9z"/>
<path class="st0" d="M137.1,564.9h-256.7c-17.9,0-32.4-14.5-32.4-32.4l0,0h256.7C122.6,532.5,137.1,547,137.1,564.9L137.1,564.9z"/>
</svg>
